<mxfile host="app.diagrams.net" agent="Mozilla/5.0 (Windows NT 10.0; Win64; x64) AppleWebKit/537.36 (KHTML, like Gecko) Chrome/136.0.0.0 Safari/537.36" version="27.0.5">
  <diagram name="Page-1" id="83E9zML4RKM-M-NwKDiu">
    <mxGraphModel dx="1426" dy="749" grid="1" gridSize="10" guides="1" tooltips="1" connect="1" arrows="1" fold="1" page="1" pageScale="1" pageWidth="827" pageHeight="1169" math="0" shadow="0">
      <root>
        <mxCell id="0" />
        <mxCell id="1" parent="0" />
        <mxCell id="uct3RE7fdFINLgNi76YB-1" value="Flex Network" style="rounded=0;whiteSpace=wrap;html=1;" vertex="1" parent="1">
          <mxGeometry x="60" y="310" width="220" height="180" as="geometry" />
        </mxCell>
        <mxCell id="uct3RE7fdFINLgNi76YB-2" value="XODA" style="rounded=0;whiteSpace=wrap;html=1;" vertex="1" parent="1">
          <mxGeometry x="570" y="280" width="210" height="160" as="geometry" />
        </mxCell>
        <mxCell id="uct3RE7fdFINLgNi76YB-10" style="edgeStyle=orthogonalEdgeStyle;rounded=0;orthogonalLoop=1;jettySize=auto;html=1;" edge="1" parent="1" source="uct3RE7fdFINLgNi76YB-3" target="uct3RE7fdFINLgNi76YB-2">
          <mxGeometry relative="1" as="geometry" />
        </mxCell>
        <mxCell id="uct3RE7fdFINLgNi76YB-11" value="Has a token but only for Gym A" style="edgeLabel;html=1;align=center;verticalAlign=middle;resizable=0;points=[];" vertex="1" connectable="0" parent="uct3RE7fdFINLgNi76YB-10">
          <mxGeometry x="-0.2784" y="2" relative="1" as="geometry">
            <mxPoint as="offset" />
          </mxGeometry>
        </mxCell>
        <mxCell id="uct3RE7fdFINLgNi76YB-3" value="XODA Login" style="rounded=1;whiteSpace=wrap;html=1;" vertex="1" parent="1">
          <mxGeometry x="480" y="100" width="120" height="60" as="geometry" />
        </mxCell>
        <mxCell id="uct3RE7fdFINLgNi76YB-9" value="Enter password for Gym A" style="edgeStyle=orthogonalEdgeStyle;rounded=0;orthogonalLoop=1;jettySize=auto;html=1;exitX=1;exitY=0.5;exitDx=0;exitDy=0;entryX=0;entryY=0.5;entryDx=0;entryDy=0;" edge="1" parent="1" source="uct3RE7fdFINLgNi76YB-4" target="uct3RE7fdFINLgNi76YB-3">
          <mxGeometry relative="1" as="geometry" />
        </mxCell>
        <mxCell id="uct3RE7fdFINLgNi76YB-4" value="Network&amp;nbsp; - Gym A , Gym B, Gym C" style="rounded=1;whiteSpace=wrap;html=1;" vertex="1" parent="1">
          <mxGeometry x="170" y="250" width="120" height="60" as="geometry" />
        </mxCell>
        <mxCell id="uct3RE7fdFINLgNi76YB-7" style="edgeStyle=orthogonalEdgeStyle;rounded=0;orthogonalLoop=1;jettySize=auto;html=1;entryX=0.5;entryY=0;entryDx=0;entryDy=0;" edge="1" parent="1" source="uct3RE7fdFINLgNi76YB-5" target="uct3RE7fdFINLgNi76YB-4">
          <mxGeometry relative="1" as="geometry" />
        </mxCell>
        <mxCell id="uct3RE7fdFINLgNi76YB-5" value="Actor" style="shape=umlActor;verticalLabelPosition=bottom;verticalAlign=top;html=1;outlineConnect=0;" vertex="1" parent="1">
          <mxGeometry x="190" y="110" width="30" height="60" as="geometry" />
        </mxCell>
        <mxCell id="uct3RE7fdFINLgNi76YB-6" value="Matt Watts member of Gym A" style="text;html=1;align=center;verticalAlign=middle;whiteSpace=wrap;rounded=0;" vertex="1" parent="1">
          <mxGeometry x="120" y="90" width="60" height="30" as="geometry" />
        </mxCell>
      </root>
    </mxGraphModel>
  </diagram>
</mxfile>
